<svg width="367" height="699" viewBox="0 0 367 699" fill="none" xmlns="http://www.w3.org/2000/svg">
<g opacity="0.89">
<path d="M239.013 295.703V319.012H156.98V673.453H239.013V696.784H0V673.453H78.0021V319.012H0V295.718H78.0021V246.097C78.0021 72.9071 149.896 0 247.14 0C286.614 0 332.182 18.2138 332.182 65.8152C332.182 86.0553 311.92 99.2407 294.704 99.2407C267.343 99.2407 253.182 80.0137 253.182 52.6523C253.182 41.5229 261.316 40.5171 261.316 27.3614C261.316 22.2811 244.101 21.2829 237.001 21.2829C188.394 21.2829 156.995 80.0209 156.995 181.288V295.718L239.013 295.703Z" fill="url(#paint0_linear_2351_1046)" fill-opacity="0.42"/>
<path d="M239.013 295.703V319.012H156.98V673.453H239.013V696.784H0V673.453H78.0021V319.012H0V295.718H78.0021V246.097C78.0021 72.9071 149.896 0 247.14 0C286.614 0 332.182 18.2138 332.182 65.8152C332.182 86.0553 311.92 99.2407 294.704 99.2407C267.343 99.2407 253.182 80.0137 253.182 52.6523C253.182 41.5229 261.316 40.5171 261.316 27.3614C261.316 22.2811 244.101 21.2829 237.001 21.2829C188.394 21.2829 156.995 80.0209 156.995 181.288V295.718L239.013 295.703Z" fill="url(#paint1_linear_2351_1046)"/>
<path d="M344.29 313.392C344.29 320.636 342.141 327.718 338.117 333.742C334.092 339.765 328.371 344.46 321.677 347.232C314.984 350.004 307.619 350.729 300.514 349.315C293.409 347.901 286.883 344.412 281.76 339.289C276.638 334.165 273.15 327.638 271.738 320.533C270.326 313.427 271.052 306.062 273.825 299.37C276.599 292.677 281.295 286.958 287.319 282.934C293.343 278.91 300.425 276.763 307.67 276.765C317.382 276.769 326.695 280.629 333.562 287.497C340.429 294.365 344.288 303.68 344.29 313.392Z" fill="url(#paint2_linear_2351_1046)" fill-opacity="0.42"/>
</g>
<defs>
<linearGradient id="paint0_linear_2351_1046" x1="-36.9533" y1="541.943" x2="333.518" y2="540.568" gradientUnits="userSpaceOnUse">
<stop stop-color="#84613B"/>
<stop offset="0.144697" stop-color="#AA8B55"/>
<stop offset="0.221297" stop-color="#A48454"/>
<stop offset="0.380648" stop-color="#C7B07C"/>
<stop offset="0.515159" stop-color="#BFA673"/>
<stop offset="0.601624" stop-color="#C5AD78"/>
<stop offset="0.850777" stop-color="#C1A670"/>
<stop offset="1" stop-color="#EAD9A1"/>
</linearGradient>
<linearGradient id="paint1_linear_2351_1046" x1="165.41" y1="497.181" x2="165.41" y2="640.727" gradientUnits="userSpaceOnUse">
<stop stop-color="#0A0602" stop-opacity="0"/>
<stop offset="1" stop-color="#0A0602"/>
</linearGradient>
<linearGradient id="paint2_linear_2351_1046" x1="262.886" y1="333.74" x2="344.581" y2="333.104" gradientUnits="userSpaceOnUse">
<stop stop-color="#84613B"/>
<stop offset="0.144697" stop-color="#AA8B55"/>
<stop offset="0.221297" stop-color="#A48454"/>
<stop offset="0.380648" stop-color="#C7B07C"/>
<stop offset="0.515159" stop-color="#BFA673"/>
<stop offset="0.601624" stop-color="#C5AD78"/>
<stop offset="0.850777" stop-color="#C1A670"/>
<stop offset="1" stop-color="#EAD9A1"/>
</linearGradient>
</defs>
</svg>
