<svg width="315" height="637" viewBox="0 0 315 637" fill="none" xmlns="http://www.w3.org/2000/svg">
<path d="M218.485 270.306V291.613H143.498V615.612H218.485V636.94H0V615.612H71.3028V291.613H0V270.319H71.3028V224.961C71.3028 66.6453 137.022 0 225.914 0C261.998 0 303.652 16.6495 303.652 60.1626C303.652 78.6643 285.13 90.7172 269.393 90.7172C244.382 90.7172 231.437 73.1416 231.437 48.1302C231.437 37.9566 238.873 37.0372 238.873 25.0114C238.873 20.3674 223.136 19.455 216.646 19.455C172.214 19.455 143.511 73.1482 143.511 165.717V270.319L218.485 270.306Z" fill="url(#paint0_linear_2352_1100)" fill-opacity="0.25"/>
<path d="M218.485 270.306V291.613H143.498V615.612H218.485V636.94H0V615.612H71.3028V291.613H0V270.319H71.3028V224.961C71.3028 66.6453 137.022 0 225.914 0C261.998 0 303.652 16.6495 303.652 60.1626C303.652 78.6643 285.13 90.7172 269.393 90.7172C244.382 90.7172 231.437 73.1416 231.437 48.1302C231.437 37.9566 238.873 37.0372 238.873 25.0114C238.873 20.3674 223.136 19.455 216.646 19.455C172.214 19.455 143.511 73.1482 143.511 165.717V270.319L218.485 270.306Z" fill="url(#paint1_linear_2352_1100)"/>
<path d="M314.721 286.475C314.721 293.098 312.757 299.571 309.078 305.078C305.398 310.584 300.169 314.875 294.051 317.409C287.932 319.943 281.2 320.606 274.705 319.313C268.21 318.021 262.244 314.831 257.562 310.148C252.88 305.465 249.691 299.499 248.4 293.003C247.109 286.508 247.773 279.776 250.308 273.658C252.844 267.54 257.136 262.312 262.643 258.633C268.15 254.955 274.624 252.993 281.246 252.994C290.124 252.998 298.638 256.526 304.915 262.805C311.192 269.083 314.719 277.597 314.721 286.475Z" fill="url(#paint2_linear_2352_1100)" fill-opacity="0.25"/>
<defs>
<linearGradient id="paint0_linear_2352_1100" x1="-33.7795" y1="495.397" x2="304.873" y2="494.14" gradientUnits="userSpaceOnUse">
<stop stop-color="#84613B"/>
<stop offset="0.144697" stop-color="#AA8B55"/>
<stop offset="0.221297" stop-color="#A48454"/>
<stop offset="0.380648" stop-color="#C7B07C"/>
<stop offset="0.515159" stop-color="#BFA673"/>
<stop offset="0.601624" stop-color="#C5AD78"/>
<stop offset="0.850777" stop-color="#C1A670"/>
<stop offset="1" stop-color="#EAD9A1"/>
</linearGradient>
<linearGradient id="paint1_linear_2352_1100" x1="151.204" y1="454.48" x2="151.204" y2="585.697" gradientUnits="userSpaceOnUse">
<stop stop-color="white" stop-opacity="0"/>
<stop offset="1" stop-color="white"/>
</linearGradient>
<linearGradient id="paint2_linear_2352_1100" x1="240.309" y1="305.076" x2="314.987" y2="304.495" gradientUnits="userSpaceOnUse">
<stop stop-color="#84613B"/>
<stop offset="0.144697" stop-color="#AA8B55"/>
<stop offset="0.221297" stop-color="#A48454"/>
<stop offset="0.380648" stop-color="#C7B07C"/>
<stop offset="0.515159" stop-color="#BFA673"/>
<stop offset="0.601624" stop-color="#C5AD78"/>
<stop offset="0.850777" stop-color="#C1A670"/>
<stop offset="1" stop-color="#EAD9A1"/>
</linearGradient>
</defs>
</svg>
