<svg width="100" height="100" viewBox="0 0 100 100" fill="none" xmlns="http://www.w3.org/2000/svg">
<path d="M50 100C77.6143 100 100 77.6142 100 50C100 22.3858 77.6143 0 50 0C22.3858 0 0 22.3858 0 50C0 77.6142 22.3858 100 50 100Z" fill="url(#paint0_linear_2359_1359)" fill-opacity="0.04"/>
<path d="M50 0.249023C77.4769 0.249023 99.751 22.5231 99.751 50C99.751 77.4769 77.4769 99.751 50 99.751C22.5231 99.751 0.249023 77.4769 0.249023 50C0.249023 22.5231 22.5231 0.249032 50 0.249023Z" stroke="url(#paint1_linear_2359_1359)" stroke-opacity="0.1" stroke-width="0.4972"/>
<path d="M69.0424 66.3301C66.1238 66.3301 63.2052 66.3301 60.2867 66.3301C60.2867 66.1679 60.2867 66.0058 60.2867 66.0058C60.2867 61.6279 60.2867 57.2501 60.2867 52.7101C60.2867 51.7372 60.2867 50.9265 59.9624 50.1158C59.1517 47.1972 55.7467 46.2244 53.4767 48.1701C52.3417 49.143 51.8553 50.278 51.8553 51.7372C51.8553 52.7101 51.8553 53.683 51.8553 54.6558C51.8553 58.3851 51.8553 62.2765 51.8553 66.0058C51.8553 66.1679 51.8553 66.1679 51.8553 66.3301C48.9367 66.3301 46.0181 66.3301 43.2617 66.3301C43.2617 57.8987 43.2617 49.3051 43.2617 40.8737C46.1803 40.8737 48.9367 40.8737 51.8553 40.8737C51.8553 41.8465 51.8553 42.9815 51.8553 43.9544C51.8553 43.9544 51.8553 43.9544 52.0174 43.9544V43.7923C53.801 41.198 56.2331 40.063 59.3138 40.2251C61.5838 40.2251 63.6917 40.8737 65.4752 42.333C67.0967 43.6301 68.0695 45.4137 68.5559 47.3594C68.8802 48.6565 69.0424 50.1158 69.0424 51.5751C69.0424 56.4394 69.0424 61.3036 69.0424 66.1679C69.0424 66.1679 69.0424 66.1679 69.0424 66.3301Z" fill="url(#paint2_linear_2359_1359)"/>
<path d="M30.1328 40.7119C33.0514 40.7119 35.8078 40.7119 38.7264 40.7119C38.7264 49.1433 38.7264 57.7369 38.7264 66.1683C35.8078 66.1683 33.0514 66.1683 30.1328 66.1683C30.1328 57.7369 30.1328 49.3055 30.1328 40.7119Z" fill="url(#paint3_linear_2359_1359)"/>
<path d="M34.5151 37.6298C33.0558 37.6298 31.7587 37.1434 30.7858 36.0084C29.6508 34.7113 29.3265 33.0898 29.9751 31.4684C30.4615 29.847 31.7587 28.8741 33.3801 28.5498C34.6772 28.2256 35.8122 28.3877 37.1094 29.0363C38.7308 29.847 39.7036 31.6305 39.3794 33.7384C39.2172 35.522 37.7579 36.9812 35.8122 37.4677C35.3258 37.6298 34.8394 37.6298 34.5151 37.6298Z" fill="url(#paint4_linear_2359_1359)"/>
<defs>
<linearGradient id="paint0_linear_2359_1359" x1="22.0978" y1="10.3583" x2="49.72" y2="49.72" gradientUnits="userSpaceOnUse">
<stop stop-color="#F0EBE4"/>
<stop offset="1" stop-color="#362817"/>
</linearGradient>
<linearGradient id="paint1_linear_2359_1359" x1="90.4628" y1="8.97722" x2="13.1206" y2="86.3194" gradientUnits="userSpaceOnUse">
<stop stop-color="#9C7443"/>
<stop offset="0.401909" stop-color="#F2ECE6"/>
<stop offset="0.700949" stop-color="#3A2E20"/>
<stop offset="1" stop-color="#837F7A"/>
</linearGradient>
<linearGradient id="paint2_linear_2359_1359" x1="44.389" y1="40.8907" x2="64.1835" y2="68.9621" gradientUnits="userSpaceOnUse">
<stop stop-color="#7C7C7C"/>
<stop offset="0.235577" stop-color="#696969"/>
<stop offset="0.67" stop-color="#F9F8F6"/>
<stop offset="0.85" stop-color="#D4D4D4"/>
<stop offset="1" stop-color="#7F7F7F"/>
</linearGradient>
<linearGradient id="paint3_linear_2359_1359" x1="30.5086" y1="41.3754" x2="46.5925" y2="49.1767" gradientUnits="userSpaceOnUse">
<stop stop-color="#7C7C7C"/>
<stop offset="0.235577" stop-color="#696969"/>
<stop offset="0.67" stop-color="#F9F8F6"/>
<stop offset="0.85" stop-color="#D4D4D4"/>
<stop offset="1" stop-color="#7F7F7F"/>
</linearGradient>
<linearGradient id="paint4_linear_2359_1359" x1="30.0729" y1="28.6286" x2="36.8958" y2="39.0203" gradientUnits="userSpaceOnUse">
<stop stop-color="#7C7C7C"/>
<stop offset="0.235577" stop-color="#696969"/>
<stop offset="0.67" stop-color="#F9F8F6"/>
<stop offset="0.85" stop-color="#D4D4D4"/>
<stop offset="1" stop-color="#7F7F7F"/>
</linearGradient>
</defs>
</svg>
