<svg width="240" height="58" viewBox="0 0 240 58" fill="none" xmlns="http://www.w3.org/2000/svg">
<path d="M86.8021 38.646C86.8021 38.6673 86.8021 38.6833 86.8021 38.694C86.8021 38.694 86.8021 38.7047 86.8021 38.726C86.8021 38.7367 86.8021 38.7473 86.8021 38.758C86.7701 39.2913 86.5782 39.8512 86.2262 40.4378C85.8849 41.0138 85.4209 41.5417 84.8343 42.0217C83.4158 43.1949 81.6773 43.7975 79.6189 43.8295C78.8189 45.184 78.1737 46.6132 77.683 48.1171C78.3443 46.9652 78.9736 46.1226 79.5709 45.5893C79.5815 45.5787 79.5922 45.568 79.6029 45.5573C80.1681 45.0667 80.7387 44.8214 81.3147 44.8214C81.6347 44.8214 81.9013 44.9174 82.1146 45.1094C82.3279 45.3013 82.4666 45.5093 82.5306 45.7333C82.6052 45.9466 82.6426 46.1599 82.6426 46.3732C82.6426 46.5972 82.6106 46.8265 82.5466 47.0612C83.1758 46.8905 83.6665 46.7519 84.0184 46.6452C84.3811 46.5386 84.765 46.3999 85.1703 46.2293C85.5756 46.0586 85.8582 45.8933 86.0182 45.7333C86.1035 45.648 86.1889 45.648 86.2742 45.7333C86.3595 45.8186 86.3595 45.904 86.2742 45.9893C86.0822 46.1813 85.7622 46.3732 85.3143 46.5652C84.877 46.7465 84.4717 46.8905 84.0984 46.9972C83.7358 47.1038 83.1972 47.2585 82.4826 47.4611C82.4719 47.4611 82.4559 47.4665 82.4346 47.4771C82.4132 47.4771 82.3972 47.4771 82.3866 47.4771C82.2053 47.8824 81.9546 48.2611 81.6347 48.613C81.0374 49.2636 80.3761 49.6423 79.6509 49.7489C79.5762 49.7596 79.4962 49.7649 79.4109 49.7649H79.3949C79.0856 49.7756 78.8509 49.7009 78.6909 49.5409C78.563 49.4129 78.499 49.2423 78.499 49.029C78.499 48.6983 78.7443 48.405 79.2349 48.1491C79.7362 47.8931 80.4721 47.6318 81.4427 47.3651C81.5173 47.0665 81.5547 46.7679 81.5547 46.4692C81.5547 46.0639 81.416 45.7866 81.1387 45.6373C80.7761 45.4347 80.3335 45.5093 79.8108 45.8613C79.0749 46.5119 78.2003 47.8238 77.1871 49.7969C77.1124 49.9889 77.0004 50.0849 76.8511 50.0849C76.8191 50.0849 76.7925 50.0795 76.7711 50.0689C76.6432 50.0475 76.5418 49.9516 76.4672 49.7809C76.3818 49.5996 76.3552 49.4289 76.3872 49.269C76.6858 47.7971 77.1711 46.3519 77.843 44.9334C78.5256 43.5042 79.3522 42.1923 80.3228 40.9978C80.8987 40.2938 81.4907 39.6806 82.0986 39.158C82.7066 38.6353 83.2878 38.2354 83.8424 37.9581C84.4077 37.6808 84.9143 37.5421 85.3623 37.5421C85.6609 37.5421 85.9116 37.5794 86.1142 37.6541C86.3169 37.7181 86.4608 37.8141 86.5462 37.9421C86.6422 38.0594 86.7062 38.1767 86.7382 38.294C86.7808 38.4007 86.8021 38.518 86.8021 38.646ZM79.6189 49.3809C79.9495 49.3276 80.2641 49.157 80.5628 48.869C80.8721 48.5704 81.112 48.2077 81.2827 47.7811C79.6615 48.2611 78.8509 48.677 78.8509 49.029C78.8509 49.1463 78.8829 49.2316 78.9469 49.285C79.0322 49.3703 79.1816 49.4076 79.3949 49.3969C79.4055 49.3969 79.4109 49.3969 79.4109 49.3969C79.4749 49.3969 79.5442 49.3916 79.6189 49.3809ZM79.8428 43.4615C80.8027 43.4189 81.704 43.2376 82.5466 42.9176C83.3891 42.5869 84.0824 42.187 84.6264 41.7177C85.181 41.2484 85.6183 40.7471 85.9382 40.2139C86.2582 39.6806 86.4235 39.174 86.4342 38.694C86.4235 38.2994 86.2635 38.1021 85.9542 38.1021C85.3996 38.1021 84.717 38.3847 83.9064 38.95C83.0958 39.5153 82.2853 40.2725 81.4747 41.2218C80.8881 41.9044 80.3441 42.6509 79.8428 43.4615ZM114.232 50.7568C114.285 50.6502 114.365 50.6235 114.472 50.6768C114.579 50.7301 114.605 50.8101 114.552 50.9168C113.933 52.186 113.021 53.1619 111.816 53.8445C110.622 54.5271 109.214 54.8791 107.593 54.9004C106.835 54.9111 106.014 54.8684 105.129 54.7724C104.244 54.6764 103.241 54.5164 102.121 54.2925C101.001 54.0791 100.068 53.8872 99.3214 53.7165C98.5855 53.5565 97.5456 53.3166 96.2017 52.9966C94.8792 52.6873 93.8713 52.4526 93.178 52.2927C92.4954 52.1327 91.6742 51.9674 90.7143 51.7967C89.7544 51.6261 88.9491 51.5141 88.2985 51.4607C87.6479 52.5806 86.9173 53.5885 86.1067 54.4844C85.3068 55.391 84.5122 56.0949 83.7229 56.5962C82.923 57.1082 82.2138 57.3642 81.5952 57.3642C81.2965 57.3642 81.0459 57.3268 80.8432 57.2522C80.6406 57.1775 80.4966 57.0762 80.4113 56.9482C80.3153 56.8309 80.2513 56.7189 80.2193 56.6122C80.1766 56.5056 80.1553 56.3882 80.1553 56.2603V56.2123V56.1803C80.1553 56.1696 80.1553 56.1589 80.1553 56.1483C80.1873 55.615 80.3793 55.055 80.7312 54.4684C81.0725 53.8925 81.5312 53.3645 82.1071 52.8846C82.8004 52.3193 83.6003 51.8767 84.5069 51.5567C85.4028 51.2474 86.3467 51.0874 87.3386 51.0768C87.4133 50.9381 87.4986 50.7888 87.5946 50.6288C87.7759 50.2982 88.0585 49.7222 88.4425 48.901C88.8584 47.9944 89.1891 47.3225 89.4344 46.8852C89.3917 46.9279 89.3597 46.9599 89.3384 46.9812C88.9331 47.4398 88.6238 47.7864 88.4105 48.0211C88.1972 48.2557 87.9199 48.533 87.5786 48.853C87.2479 49.1623 86.9493 49.3916 86.6827 49.5409C86.4267 49.6796 86.1814 49.7489 85.9467 49.7489C85.2321 49.7489 84.8748 49.301 84.8748 48.405C84.8748 47.9997 84.9815 47.5465 85.1948 47.0452C85.4081 46.5439 85.6374 46.1119 85.8827 45.7493C85.9467 45.6533 86.0321 45.6 86.1387 45.5893C86.256 45.568 86.368 45.5893 86.4747 45.6533C86.592 45.728 86.6667 45.84 86.6987 45.9893C86.7307 46.1279 86.6987 46.2932 86.6027 46.4852C86.1334 47.2958 85.8987 47.9784 85.8987 48.533C85.8987 48.949 86.0054 49.157 86.2187 49.157C86.5067 49.157 86.88 48.9597 87.3386 48.565C87.7226 48.2237 88.2985 47.6158 89.0664 46.7412C89.8557 45.8453 90.405 45.2694 90.7143 45.0134C90.9382 44.7787 91.1409 44.7467 91.3222 44.9174C91.4289 45.0027 91.4928 45.1307 91.5142 45.3013C91.5355 45.472 91.5035 45.6107 91.4182 45.7173C91.1729 46.0159 90.9222 46.3839 90.6663 46.8212C90.421 47.2478 90.2183 47.6158 90.0583 47.9251C89.909 48.2237 89.7064 48.6557 89.4504 49.221C89.0664 50.0209 88.7784 50.5968 88.5865 50.9488C88.5865 50.9701 88.5598 51.0288 88.5065 51.1248C89.1571 51.1781 89.9517 51.2901 90.8902 51.4607C91.8395 51.6314 92.6501 51.7914 93.322 51.9407C94.0046 52.1007 94.9912 52.3353 96.2817 52.6446C97.6362 52.9646 98.6761 53.2046 99.4014 53.3645C100.127 53.5245 101.049 53.7112 102.169 53.9245C103.289 54.1485 104.286 54.3085 105.161 54.4044C106.035 54.5004 106.846 54.5431 107.593 54.5324C109.139 54.5218 110.483 54.1911 111.624 53.5405C112.765 52.8899 113.635 51.962 114.232 50.7568ZM81.0032 56.8042C81.7391 56.8042 82.6937 56.3083 83.8669 55.3164C85.0295 54.3351 86.112 53.0446 87.1146 51.4447C86.464 51.4661 85.8401 51.5567 85.2428 51.7167C84.6349 51.8767 84.0962 52.0793 83.627 52.3247C83.1577 52.5806 82.7257 52.8633 82.3311 53.1726C81.9365 53.4925 81.6112 53.8232 81.3552 54.1645C81.0992 54.5164 80.8966 54.8631 80.7472 55.2044C80.5979 55.5563 80.5233 55.8923 80.5233 56.2123C80.5339 56.6069 80.6939 56.8042 81.0032 56.8042Z" fill="white"/>
<path d="M106.056 51.913L91.6172 37.4763L99.0575 30.0488H113.073L120.514 37.4763L106.056 51.913ZM93.644 37.4763L106.069 49.899L118.495 37.4763L112.486 31.4727H99.6578L93.644 37.4763Z" fill="white"/>
<path d="M108.331 38.4361V38.8902H106.73V45.7943H108.328V46.2484H103.674V45.7943H105.191V38.8902H103.672V38.4361H105.191V37.4586C105.191 34.0848 106.592 32.666 108.488 32.666C109.257 32.666 110.142 33.0201 110.142 33.9488C110.127 34.13 110.043 34.2986 109.908 34.4198C109.772 34.5411 109.595 34.6057 109.414 34.6005C108.88 34.6005 108.606 34.2259 108.606 33.6923C108.606 33.4768 108.762 33.4562 108.762 33.1997C108.762 33.1022 108.426 33.0816 108.287 33.0816C107.341 33.0816 106.73 34.2259 106.73 36.1989V38.4284L108.331 38.4361Z" fill="white"/>
<path d="M111.689 38.6332C111.69 38.7748 111.648 38.9135 111.57 39.0315C111.492 39.1496 111.38 39.2417 111.249 39.2963C111.119 39.3509 110.975 39.3654 110.836 39.3381C110.697 39.3108 110.569 39.2428 110.468 39.1428C110.368 39.0428 110.3 38.9152 110.272 38.7763C110.244 38.6374 110.258 38.4933 110.312 38.3624C110.366 38.2315 110.458 38.1195 110.576 38.0407C110.693 37.962 110.832 37.9199 110.974 37.9199C111.067 37.9196 111.161 37.9378 111.247 37.9735C111.334 38.0092 111.413 38.0617 111.48 38.1279C111.546 38.1942 111.599 38.2729 111.635 38.3596C111.671 38.4463 111.689 38.5393 111.689 38.6332Z" fill="white"/>
<path d="M133.621 40.3596V41.1524H130.83V53.2108H133.621V54.001H125.488V53.2108H128.141V41.1524H125.488V40.3596H128.141V38.6689C128.119 37.3966 128.264 36.1269 128.572 34.8923C128.804 33.9551 129.213 33.0711 129.778 32.2882C130.257 31.6428 130.889 31.127 131.618 30.7873C132.337 30.4619 133.119 30.2973 133.909 30.3049C134.254 30.3065 134.598 30.3469 134.935 30.4255C135.267 30.5005 135.582 30.6352 135.866 30.8232C136.136 31.0022 136.366 31.2366 136.538 31.5108C136.718 31.8222 136.807 32.1777 136.795 32.537C136.8 32.6985 136.765 32.8587 136.692 33.0032C136.62 33.1478 136.514 33.2723 136.382 33.3657C136.136 33.5608 135.833 33.669 135.52 33.6736C135.322 33.6855 135.124 33.6514 134.941 33.574C134.759 33.4965 134.597 33.3778 134.468 33.2272C134.22 32.9015 134.093 32.4997 134.109 32.0906C134.102 32.0185 134.111 31.9458 134.134 31.8772C134.158 31.8087 134.195 31.7459 134.245 31.6929C134.299 31.6293 134.339 31.5552 134.363 31.4753C134.387 31.3954 134.394 31.3113 134.383 31.2286C134.383 31.1362 134.273 31.0798 134.055 31.0567C133.837 31.0336 133.67 31.0208 133.542 31.0208C132.716 31.0208 132.055 31.498 131.561 32.4524C131.067 33.4068 130.82 34.7452 130.82 36.4676V40.3622L133.621 40.3596Z" fill="white"/>
<path d="M148.982 51.6303C148.954 52.3921 148.634 53.1139 148.086 53.6443C147.819 53.9095 147.501 54.118 147.152 54.2574C146.802 54.3967 146.428 54.4639 146.052 54.4551C145.773 54.4703 145.495 54.4278 145.234 54.3302C144.973 54.2326 144.735 54.0821 144.535 53.8881C144.144 53.4597 143.892 52.9231 143.812 52.3487C143.253 53.0545 142.524 53.6063 141.693 53.9522C140.396 54.4758 138.971 54.5895 137.608 54.278C137.147 54.1744 136.711 53.9808 136.325 53.7085C135.953 53.4427 135.651 53.0905 135.445 52.6822C135.211 52.182 135.099 51.6332 135.119 51.0813C135.162 49.4718 135.954 48.2369 137.495 47.3765C139.036 46.5162 141.127 46.0886 143.768 46.0937V42.8072C143.784 42.4515 143.707 42.0978 143.545 41.7809C143.407 41.5278 143.212 41.3101 142.975 41.1446C142.736 40.9783 142.467 40.8606 142.183 40.7983C141.889 40.73 141.589 40.6956 141.287 40.6957C141.103 40.6957 140.833 40.7136 140.476 40.747C140.116 40.7828 139.76 40.8463 139.409 40.9368C139.082 41.0168 138.768 41.1447 138.478 41.3165C138.362 41.3741 138.263 41.4624 138.194 41.5718C138.124 41.6813 138.086 41.8077 138.083 41.9374C138.083 42.0067 138.134 42.0734 138.237 42.1427C138.339 42.2119 138.462 42.2992 138.598 42.3992C138.748 42.5154 138.872 42.6624 138.96 42.8302C139.072 43.0427 139.126 43.2806 139.117 43.5204C139.126 43.7117 139.097 43.9031 139.032 44.0832C138.967 44.2634 138.867 44.4288 138.737 44.5697C138.603 44.704 138.443 44.8088 138.266 44.8773C138.089 44.9458 137.9 44.9765 137.711 44.9674C137.509 44.9778 137.307 44.9413 137.121 44.8607C136.936 44.7802 136.771 44.6577 136.641 44.503C136.38 44.1626 136.246 43.7413 136.264 43.3126C136.282 42.9528 136.382 42.6018 136.556 42.2863C136.782 41.8598 137.1 41.4891 137.488 41.2011C137.997 40.8238 138.568 40.5381 139.176 40.357C140.02 40.1103 140.898 39.9978 141.777 40.0235C142.691 39.9898 143.605 40.1006 144.484 40.3519C145.014 40.508 145.495 40.7988 145.88 41.196C146.158 41.5034 146.337 41.888 146.393 42.2992C146.437 42.6652 146.461 43.0336 146.462 43.4024V51.6124C146.451 52.0111 146.48 52.4099 146.549 52.8028C146.606 53.0594 146.806 53.1979 147.186 53.1979C147.358 53.1963 147.526 53.1428 147.667 53.0444C147.809 52.946 147.917 52.8073 147.978 52.6463C148.144 52.3255 148.283 51.9917 148.394 51.6483L148.982 51.6303ZM143.776 46.8044C143.148 46.8096 142.521 46.8498 141.898 46.925C141.218 46.9995 140.551 47.1679 139.917 47.4253C139.318 47.6613 138.781 48.0328 138.35 48.5105C137.921 49.0702 137.696 49.7591 137.712 50.4637C137.727 51.1684 137.982 51.8468 138.434 52.3872C138.69 52.632 138.993 52.8221 139.325 52.9461C139.656 53.07 140.01 53.1251 140.364 53.1081C140.85 53.1186 141.335 53.043 141.795 52.8849C142.247 52.7056 142.662 52.4447 143.019 52.1152C143.196 51.9281 143.358 51.7264 143.501 51.5123C143.683 51.2489 143.774 50.7486 143.776 50.0114V46.8044Z" fill="white"/>
<path d="M159.406 40.3598V44.2082H158.636C158.43 43.2843 157.988 42.4295 157.353 41.7273C157.031 41.4013 156.648 41.1427 156.225 40.9665C155.802 40.7903 155.348 40.7 154.89 40.701C154.304 40.6523 153.715 40.7594 153.184 41.0115C152.808 41.199 152.473 41.4609 152.201 41.7812C151.99 42.0318 151.836 42.3262 151.752 42.6432C151.7 42.8294 151.666 43.0201 151.65 43.2128C151.645 43.4426 151.686 43.6712 151.77 43.885C151.924 44.1488 152.16 44.3544 152.442 44.4699C152.977 44.7278 153.537 44.9298 154.113 45.0728C154.86 45.2815 155.886 45.5227 157.191 45.7963C158.496 46.07 159.427 46.5181 159.983 47.1407C160.511 47.7616 160.776 48.6237 160.776 49.7269C160.786 50.408 160.651 51.0834 160.378 51.7075C160.131 52.2716 159.767 52.777 159.311 53.1905C158.853 53.5985 158.321 53.9139 157.743 54.1192C157.124 54.3427 156.469 54.4539 155.811 54.4476C155.072 54.4467 154.341 54.3002 153.659 54.0166C152.968 53.7382 152.349 53.3086 151.847 52.7594L151.113 54.0063H150.344V49.4575H151.137C151.419 50.622 152.015 51.6868 152.861 52.5362C153.279 52.9439 153.776 53.2625 154.321 53.4729C154.866 53.6832 155.448 53.7809 156.032 53.76C156.849 53.7524 157.639 53.4664 158.272 52.9493C158.589 52.6886 158.858 52.3732 159.064 52.018C159.276 51.6453 159.383 51.2226 159.375 50.7942C159.375 50.1271 158.944 49.6063 158.092 49.2266C156.969 48.7619 155.811 48.387 154.628 48.1054C154.054 47.9703 153.508 47.8326 152.991 47.6923C152.507 47.5687 152.046 47.3649 151.629 47.0894C151.236 46.8226 150.916 46.4608 150.7 46.0375C150.443 45.4752 150.324 44.8593 150.354 44.2416C150.364 43.8064 150.433 43.3747 150.562 42.9588C150.711 42.4561 150.957 41.9873 151.285 41.5785C151.671 41.1092 152.153 40.7278 152.699 40.4599C153.42 40.1225 154.212 39.9624 155.008 39.9929C156.089 39.9929 157.157 40.4205 158.212 41.2757L158.833 40.347L159.406 40.3598Z" fill="white"/>
<path d="M163.763 31.044H161.867V30.2743H162.591C163.234 30.2743 163.883 30.2512 164.538 30.205C165.18 30.161 165.819 30.0805 166.452 29.9639V43.6822H166.511C166.924 42.6775 167.547 41.7722 168.338 41.0268C169.071 40.3598 170.07 40.0262 171.334 40.0262C171.721 40.0334 172.108 40.0625 172.491 40.1135C172.97 40.1735 173.431 40.326 173.851 40.5624C174.303 40.8177 174.688 41.1775 174.972 41.6118C175.309 42.1728 175.47 42.8212 175.437 43.4744V53.2238H177.297V54.0165H170.967V53.2238H172.763V43.908C172.774 43.4051 172.729 42.9025 172.627 42.4097C172.563 42.0847 172.414 41.7822 172.196 41.5322C172.01 41.3309 171.771 41.1868 171.506 41.1166C171.207 41.0438 170.9 41.0093 170.593 41.014C170.004 41.0105 169.43 41.1977 168.956 41.5476C168.44 41.9259 167.996 42.3934 167.645 42.9279C166.889 44.0811 166.477 45.4258 166.457 46.8046V53.2186H168.307V54.0114H161.867V53.2186H163.763V31.044Z" fill="white"/>
<path d="M178.809 54.0065V53.2163H181.118V41.1579H178.809V40.3651H179.945C180.588 40.3651 181.237 40.348 181.892 40.3138C182.539 40.2796 183.18 40.1808 183.806 40.0188V53.2215H185.838V54.0117L178.809 54.0065ZM180.774 32.9146C180.771 32.6953 180.813 32.4778 180.899 32.2759C180.985 32.074 181.112 31.8922 181.272 31.7421C181.422 31.5891 181.602 31.4677 181.8 31.3849C181.999 31.3021 182.211 31.2595 182.426 31.2598C182.868 31.2709 183.291 31.4423 183.617 31.7421C183.794 31.8815 183.938 32.0595 184.037 32.2627C184.135 32.4658 184.186 32.6887 184.186 32.9146C184.195 33.1551 184.155 33.3948 184.069 33.6196C183.983 33.8444 183.853 34.0496 183.686 34.2231C183.523 34.3919 183.327 34.5248 183.11 34.6132C182.893 34.7016 182.66 34.7435 182.426 34.7362C182.198 34.7455 181.97 34.7022 181.761 34.6097C181.552 34.5172 181.367 34.3779 181.22 34.2025C180.923 33.8421 180.764 33.387 180.774 32.9197" fill="white"/>
<path d="M193.398 40.0234C194.277 40.0233 195.146 40.2038 195.953 40.5538C196.759 40.9038 197.485 41.4158 198.085 42.058C198.697 42.7281 199.181 43.5046 199.514 44.3491C200.229 46.2016 200.229 48.2538 199.514 50.1063C199.182 50.9513 198.698 51.7279 198.085 52.3974C197.488 53.0403 196.767 53.556 195.966 53.9137C195.159 54.2765 194.285 54.4641 193.4 54.4641C192.516 54.4641 191.641 54.2765 190.835 53.9137C190.033 53.5567 189.312 53.0409 188.715 52.3974C188.101 51.7287 187.615 50.9519 187.284 50.1063C186.572 48.2532 186.572 46.2022 187.284 44.3491C187.616 43.5041 188.102 42.7275 188.715 42.058C189.315 41.4164 190.04 40.9048 190.845 40.5548C191.651 40.2048 192.519 40.024 193.398 40.0234ZM193.398 40.7136C192.522 40.7136 191.85 40.9205 191.381 41.3345C190.902 41.7581 190.539 42.2979 190.329 42.9021C190.09 43.5789 189.957 44.2885 189.934 45.0059C189.898 45.7756 189.883 46.5145 189.883 47.2277C189.883 47.9409 189.898 48.7158 189.934 49.4854C189.957 50.202 190.09 50.9108 190.329 51.5867C190.539 52.1916 190.902 52.7323 191.381 53.1568C191.85 53.569 192.522 53.776 193.398 53.7777C194.273 53.7794 194.945 53.5725 195.414 53.1568C195.892 52.7314 196.253 52.1909 196.463 51.5867C196.702 50.9106 196.836 50.202 196.861 49.4854C196.895 48.7158 196.912 47.9632 196.912 47.2277C196.912 46.5145 196.894 45.7756 196.861 45.0059C196.836 44.2885 196.702 43.5791 196.463 42.9021C196.253 42.2986 195.892 41.7589 195.414 41.3345C194.942 40.9223 194.27 40.7153 193.398 40.7136Z" fill="white"/>
<path d="M202.865 41.1528H200.969V40.36H202.659C202.982 40.3598 203.305 40.3367 203.624 40.2908C203.945 40.2677 204.266 40.2343 204.589 40.1881C204.912 40.142 205.233 40.0829 205.554 40.0137V43.6671H205.623C206.037 42.6634 206.66 41.7592 207.45 41.0143C208.183 40.3472 209.183 40.0137 210.449 40.0137C210.835 40.0209 211.22 40.0501 211.603 40.1009C212.081 40.1609 212.543 40.3134 212.963 40.5499C213.415 40.8051 213.8 41.1649 214.084 41.5992C214.421 42.1601 214.583 42.8086 214.549 43.4619V53.2112H216.411V54.004H210.069V53.2112H211.865V43.9108C211.877 43.407 211.832 42.9034 211.729 42.41C211.664 42.0844 211.515 41.7812 211.298 41.5299C211.112 41.3297 210.872 41.1865 210.608 41.1169C210.309 41.0441 210.002 41.0096 209.694 41.0143C209.106 41.0111 208.531 41.1983 208.058 41.5479C207.542 41.9256 207.099 42.3932 206.749 42.9282C205.991 44.0805 205.578 45.4256 205.559 46.8049V53.2189H207.421V54.0117H200.969V53.2189H202.865V41.1528Z" fill="white"/>
<path d="M216.516 40.3594H218.548V36.1184C219.007 36.1184 219.451 36.1184 219.877 36.103C220.306 36.0887 220.735 36.0484 221.159 35.9824V40.3594H224.192V41.1521H221.157V51.6968C221.157 51.8585 221.157 52.0304 221.175 52.21C221.182 52.3851 221.23 52.5562 221.313 52.7103C221.406 52.872 221.543 53.0038 221.708 53.09C221.948 53.2057 222.213 53.2587 222.478 53.2439C222.884 53.2628 223.28 53.1208 223.581 52.8488C223.856 52.5922 224.133 52.2895 224.407 51.9688L224.959 52.3485C224.621 53.0269 224.062 53.5698 223.374 53.8879C222.714 54.236 221.982 54.4249 221.236 54.4395C220.732 54.4601 220.228 54.378 219.756 54.1983C219.425 54.0684 219.138 53.8479 218.927 53.562C218.735 53.278 218.611 52.953 218.566 52.6128C218.505 52.2249 218.476 51.8328 218.478 51.4403V41.1521H216.516V40.3594Z" fill="white"/>
<path d="M225.641 41.1522V40.3594H231.844V41.1522H230.018L233.361 51.0426H233.43L236.911 41.1522H234.808V40.3594H239.498V41.1522H237.84L233.086 54.4549H231.914L227.295 41.1522H225.641Z" fill="white"/>
<path d="M34.5512 56.5359L0 21.9103L17.8131 4.13574L51.3893 4.17166L69.1793 21.9848L34.5512 56.5359ZM4.82336 21.9155L34.5563 51.7126L64.3534 21.9796L49.9731 7.58137L19.2242 7.55058L4.82336 21.9155Z" fill="white"/>
<path d="M40.0248 23.0284V24.1162H36.2021L36.1764 40.6516H40.0069V41.742L28.8516 41.7292V40.6388H32.4922L32.5178 24.1162H28.8772V23.0155H32.5178V20.7065C32.5178 12.6248 35.8865 9.22534 40.4251 9.23047C42.2697 9.23561 44.3864 10.0823 44.3864 12.3143C44.3864 13.2585 43.4397 13.8717 42.6341 13.8717C41.3513 13.8717 40.697 12.9711 40.6996 11.6935C40.6996 11.1803 41.0767 11.129 41.0793 10.5158C41.0793 10.2772 40.2763 10.2311 39.9427 10.2311C37.6747 10.2311 36.2072 12.966 36.2021 17.6945V23.0335L40.0248 23.0284Z" fill="white"/>
<path d="M48.0827 23.5112C48.0842 23.8501 47.9851 24.1818 47.7978 24.4643C47.6106 24.7468 47.3437 24.9673 47.031 25.0979C46.7183 25.2285 46.3739 25.2634 46.0414 25.198C45.7088 25.1327 45.4032 24.97 45.1632 24.7308C44.9232 24.4915 44.7597 24.1863 44.6933 23.854C44.6269 23.5217 44.6607 23.1771 44.7904 22.864C44.9201 22.5509 45.1398 22.2834 45.4218 22.0953C45.7037 21.9072 46.0351 21.8071 46.374 21.8076C46.8274 21.8083 47.262 21.9889 47.5824 22.3097C47.9027 22.6306 48.0827 23.0655 48.0827 23.5189" fill="white"/>
<path d="M81.2699 12.2745L82.8397 12.2762C84.6601 12.2781 85.8784 12.0155 86.4945 11.4885C87.1195 10.9527 87.4327 9.99449 87.4341 8.61379C87.4355 7.32104 87.177 6.43254 86.6586 5.94832C86.1491 5.4553 85.1292 5.208 83.599 5.20639L81.2773 5.20396L81.2699 12.2745ZM76.5376 21.5959L78.6483 21.5981L78.6654 5.20123L76.6603 5.19913L76.6611 4.51318L84.167 4.52104C86.1457 4.52311 87.6711 4.86768 88.7433 5.55476C89.8155 6.24183 90.3509 7.20537 90.3496 8.44536C90.3483 9.67655 89.8636 10.6698 88.8954 11.4251C87.9361 12.1716 86.6209 12.5836 84.9499 12.6609L84.9497 12.872C86.2422 13.102 87.2927 13.556 88.101 14.234C88.9094 14.912 89.3878 15.7392 89.5363 16.7155C89.6149 17.2257 89.6625 17.9688 89.6791 18.945C89.6956 19.9124 89.7741 20.5764 89.9144 20.9372C90.0284 21.2539 90.1909 21.4871 90.4018 21.6368C90.6215 21.7777 90.9072 21.8484 91.259 21.8488C91.47 21.849 91.6899 21.8228 91.9186 21.7703C92.1474 21.709 92.3849 21.6213 92.6312 21.5072L92.6305 22.18C92.1906 22.3642 91.764 22.5045 91.3505 22.6008C90.9371 22.6971 90.5457 22.745 90.1764 22.7447C89.0507 22.7435 88.2113 22.3117 87.6582 21.4493C87.105 20.5868 86.7855 19.197 86.6995 17.2798C86.6996 17.2358 86.6953 17.1742 86.6865 17.0951C86.6352 15.7143 86.3592 14.7511 85.8585 14.2053C85.4984 13.8092 85.0546 13.5053 84.5271 13.2937C84.0085 13.0821 83.4458 12.976 82.839 12.9753L81.2692 12.9737L81.2602 21.6009L83.318 21.603L83.3173 22.2758L76.5369 22.2687L76.5376 21.5959ZM94.3981 22.2874L94.3988 21.6146L96.4039 21.6167L96.421 5.21982L94.416 5.21772L94.4167 4.53177L107.595 4.54557L107.59 8.81958L107.023 8.81898C106.822 7.46446 106.401 6.52743 105.76 6.00789C105.118 5.48836 104.01 5.22777 102.436 5.22612L99.1121 5.22264L99.1042 12.7285L99.6451 12.7291C100.797 12.7303 101.615 12.5245 102.099 12.1117C102.583 11.6901 102.87 10.9604 102.959 9.92281L103.513 9.92339L103.506 16.5982L102.939 16.5976C102.879 15.4103 102.576 14.5834 102.031 14.1167C101.487 13.6412 100.559 13.4028 99.2486 13.4014L99.1035 13.4013L99.0949 21.6195L102.854 21.6235C104.323 21.625 105.401 21.3139 106.087 20.6903C106.783 20.0578 107.303 18.9107 107.648 17.2489L108.241 17.2496L107.959 22.3016L94.3981 22.2874ZM114.931 15.1459L119.575 15.1508L117.34 8.02511L114.931 15.1459ZM109.806 22.3035L109.806 21.6307L111.917 21.633L117.99 4.10795L118.663 4.10865L124.29 21.6459L126.15 21.6479L126.15 22.3206L119.396 22.3136L119.396 21.6408L121.586 21.6431L119.811 15.9425L114.68 15.9372L112.788 21.6339L115.03 21.6362L115.029 22.309L109.806 22.3035ZM127.231 22.3218L127.232 21.649L129.448 21.6513L129.465 5.25442L127.342 5.2522L127.342 4.56625L134.611 4.57386L134.61 5.25981L132.17 5.25726L132.153 21.6541L135.807 21.658C137.143 21.6594 138.133 21.357 138.776 20.7509C139.427 20.136 139.951 18.9977 140.349 17.336L140.863 17.3365L140.555 22.3357L127.231 22.3218ZM149.09 22.3446L149.09 21.6719L151.095 21.674L151.113 5.27709L149.107 5.27499L149.108 4.58904L162.286 4.60284L162.282 8.87685L161.715 8.87626C161.514 7.52173 161.093 6.5847 160.451 6.06517C159.81 5.54563 158.702 5.28504 157.128 5.28339L153.804 5.27991L153.796 12.7858L154.337 12.7864C155.489 12.7876 156.307 12.5818 156.791 12.169C157.275 11.7473 157.562 11.0177 157.651 9.98008L158.205 9.98066L158.198 16.6555L157.63 16.6549C157.57 15.4676 157.268 14.6406 156.723 14.174C156.178 13.6985 155.25 13.4601 153.94 13.4587L153.795 13.4586L153.786 21.6768L157.546 21.6807C159.015 21.6823 160.092 21.3712 160.779 20.7475C161.474 20.1151 161.994 18.968 162.339 17.3062L162.933 17.3068L162.65 22.3588L149.09 22.3446ZM165.777 22.4413L165.315 22.4408L165.32 17.771L165.834 17.7716C166.255 19.0912 166.918 20.134 167.823 20.9C168.737 21.6573 169.765 22.0365 170.908 22.0377C172.184 22.039 173.257 21.64 174.128 20.8407C175.009 20.0413 175.449 19.0656 175.451 17.9136C175.452 16.5592 174.125 15.463 171.47 14.6247C171.259 14.563 171.101 14.5144 170.996 14.4791C168.727 13.7556 167.22 13.0153 166.473 12.2582C165.726 11.4924 165.354 10.4586 165.355 9.15709C165.357 7.69724 165.837 6.51052 166.797 5.59692C167.756 4.67453 169.006 4.21414 170.545 4.21575C171.688 4.21695 172.756 4.51267 173.749 5.10293C173.934 5.21745 174.044 5.27472 174.079 5.27476C174.132 5.26602 174.176 5.25288 174.211 5.23532C174.255 5.20899 174.294 5.17385 174.33 5.12992L174.845 4.56323L175.412 4.56382L175.408 8.62677L174.92 8.62626C174.49 7.35064 173.884 6.39583 173.102 5.76182C172.329 5.12782 171.379 4.81024 170.254 4.80906C169.234 4.80799 168.371 5.11488 167.667 5.72975C166.972 6.33582 166.624 7.07857 166.623 7.958C166.622 8.68792 166.89 9.28621 167.426 9.75287C167.962 10.2195 168.841 10.6162 170.063 10.9429C170.238 10.987 170.507 11.0576 170.867 11.1548C172.907 11.7021 174.256 12.2268 174.915 12.7288C175.495 13.1779 175.934 13.7368 176.233 14.4055C176.54 15.0742 176.693 15.8306 176.692 16.6749C176.69 18.5129 176.143 19.9765 175.052 21.0659C173.969 22.1552 172.504 22.699 170.657 22.697C169.364 22.6957 168.182 22.3427 167.11 21.638C166.934 21.5235 166.833 21.4662 166.807 21.4662C166.78 21.4662 166.745 21.4793 166.701 21.5056C166.666 21.532 166.626 21.5671 166.582 21.6111L165.777 22.4413ZM181.316 22.3784L181.317 21.7056L183.559 21.708L183.577 5.31109C183.462 5.30218 183.343 5.29765 183.22 5.29753C183.097 5.2886 182.917 5.28402 182.68 5.28377C181.431 5.28246 180.498 5.60247 179.882 6.24381C179.266 6.87635 178.785 8.04988 178.44 9.7644L177.847 9.76378L178.09 4.61939L191.782 4.63373L191.975 9.77858L191.381 9.77796C191.145 8.15077 190.698 6.99825 190.039 6.3204C189.38 5.63376 188.378 5.28974 187.033 5.28833C186.804 5.28809 186.637 5.29231 186.531 5.30099C186.426 5.30088 186.334 5.30518 186.254 5.31389L186.224 21.7108L188.414 21.7131L188.413 22.3858L181.316 22.3784ZM196.718 15.2316L201.361 15.2365L199.126 8.11076L196.718 15.2316ZM191.592 22.3892L191.593 21.7164L193.704 21.7186L199.777 4.19359L200.449 4.1943L206.077 21.7316L207.937 21.7335L207.936 22.4063L201.182 22.3992L201.183 21.7264L203.373 21.7287L201.598 16.0282L196.467 16.0228L194.574 21.7195L196.817 21.7219L196.816 22.3946L191.592 22.3892ZM210.997 22.4095L210.997 21.7367L213.24 21.7391L213.257 5.34217C213.143 5.33326 213.024 5.32874 212.901 5.32861C212.778 5.31968 212.598 5.3151 212.36 5.31485C211.111 5.31354 210.179 5.63356 209.563 6.27489C208.946 6.90743 208.466 8.08097 208.121 9.79549L207.527 9.79486L207.77 4.65047L221.463 4.66481L221.655 9.80966L221.062 9.80904C220.826 8.18185 220.379 7.02933 219.72 6.35149C219.061 5.66484 218.059 5.32082 216.713 5.31941C216.485 5.31917 216.318 5.32339 216.212 5.33207C216.107 5.33196 216.014 5.33626 215.935 5.34498L215.905 21.7419L218.094 21.7441L218.094 22.4169L210.997 22.4095ZM223.146 22.4222L223.147 21.7494L225.152 21.7515L225.169 5.35465L223.164 5.35255L223.165 4.66659L236.343 4.68039L236.338 8.9544L235.771 8.95381C235.57 7.59928 235.149 6.66225 234.508 6.14272C233.866 5.62318 232.758 5.36259 231.184 5.36094L227.86 5.35746L227.852 12.8634L228.393 12.8639C229.545 12.8651 230.363 12.6593 230.847 12.2465C231.331 11.8249 231.618 11.0953 231.707 10.0576L232.261 10.0582L232.254 16.7331L231.687 16.7325C231.626 15.5452 231.324 14.7182 230.779 14.2515C230.234 13.7761 229.307 13.5376 227.997 13.5363L227.851 13.5361L227.843 21.7544L231.602 21.7583C233.071 21.7598 234.149 21.4488 234.835 20.8251C235.531 20.1926 236.051 19.0455 236.395 17.3838L236.989 17.3844L236.707 22.4364L223.146 22.4222Z" fill="white"/>
</svg>
