<svg width="64" height="44" viewBox="0 0 64 44" fill="none" xmlns="http://www.w3.org/2000/svg">
<path fill-rule="evenodd" clip-rule="evenodd" d="M12.6907 1.18984e-06H50.6922C52.0738 -2.63102e-05 53.2661 -5.40656e-05 54.253 0.0587134C55.2918 0.120616 56.331 0.256742 57.3579 0.627992C59.6732 1.46531 61.5131 3.07139 62.472 5.09286C62.8972 5.98917 63.0531 6.89642 63.1243 7.80346C63.1914 8.66492 63.1914 9.70574 63.1914 10.912V33.088C63.1914 34.2941 63.1914 35.335 63.1243 36.1966C63.0531 37.1035 62.8972 38.0108 62.472 38.9073C61.5131 40.9285 59.6732 42.5348 57.3579 43.3719C56.331 43.7432 55.2918 43.8793 54.253 43.9414C53.2661 44 52.0738 44 50.6922 44H12.6906C11.3089 44 10.1167 44 9.12991 43.9414C8.09095 43.8793 7.05173 43.7432 6.02505 43.3719C3.70955 42.5348 1.86985 40.9285 0.910741 38.9073C0.485491 38.0108 0.329566 37.1035 0.25866 36.1966C0.191344 35.335 0.191376 34.2941 0.191408 33.088V10.9121C0.191376 9.70577 0.191344 8.66492 0.25866 7.80346C0.329566 6.89642 0.485491 5.98917 0.910741 5.09286C1.86985 3.07139 3.70955 1.46531 6.02505 0.627992C7.05173 0.256742 8.09095 0.120616 9.12991 0.0587134C10.1167 -5.40656e-05 11.3089 -2.63102e-05 12.6907 1.18984e-06ZM7.49138 6.26387C8.637 5.12089 10.627 5.00506 11.9363 6.00518L29.6171 19.5113C30.8047 20.4185 32.5781 20.4185 33.7657 19.5113L51.4466 6.00518C52.7558 5.00506 54.7459 5.12089 55.8913 6.26387C57.0369 7.40688 56.9043 9.14422 55.5952 10.1443L37.9142 23.6505C34.3513 26.3722 29.0315 26.3722 25.4686 23.6505L7.78773 10.1443C6.47846 9.14422 6.34578 7.40688 7.49138 6.26387Z" fill="url(#paint0_linear_2359_1369)"/>
<defs>
<linearGradient id="paint0_linear_2359_1369" x1="2.94606" y1="1.14673" x2="30.7834" y2="58.4153" gradientUnits="userSpaceOnUse">
<stop stop-color="#7C7C7C"/>
<stop offset="0.235577" stop-color="#696969"/>
<stop offset="0.67" stop-color="#F9F8F6"/>
<stop offset="0.85" stop-color="#D4D4D4"/>
<stop offset="1" stop-color="#7F7F7F"/>
</linearGradient>
</defs>
</svg>
