<svg width="100" height="100" viewBox="0 0 100 100" fill="none" xmlns="http://www.w3.org/2000/svg">
<path d="M69.7566 64.1543L67.226 66.8178C67.226 66.8178 61.2116 73.1502 44.7949 55.866C28.3784 38.5825 34.3927 32.2505 34.3927 32.2505L35.9861 30.5729C39.9116 26.4403 40.2816 19.8054 36.8566 14.9617L29.8514 5.05341C25.6126 -0.94167 17.422 -1.73361 12.5636 3.38134L3.8436 12.5619C1.4346 15.0981 -0.179732 18.3859 0.0160455 22.033C0.516878 31.3637 4.50393 51.4395 26.752 74.8625C50.3449 99.7014 72.4821 100.688 81.5349 99.795C84.3982 99.5126 86.8882 97.9685 88.8949 95.8555L96.7871 87.5473C102.114 81.9384 100.612 72.3231 93.796 68.4002L83.1821 62.2907C78.7066 59.7149 73.2544 60.4713 69.7566 64.1543Z" fill="url(#paint0_linear_2359_1368)"/>
<defs>
<linearGradient id="paint0_linear_2359_1368" x1="4.37247" y1="2.6062" x2="79.8174" y2="111.006" gradientUnits="userSpaceOnUse">
<stop stop-color="#7C7C7C"/>
<stop offset="0.235577" stop-color="#696969"/>
<stop offset="0.67" stop-color="#F9F8F6"/>
<stop offset="0.85" stop-color="#D4D4D4"/>
<stop offset="1" stop-color="#7F7F7F"/>
</linearGradient>
</defs>
</svg>
