<svg width="37" height="37" viewBox="0 0 37 37" fill="none" xmlns="http://www.w3.org/2000/svg">
<path d="M18.8105 36.6172C28.7517 36.6172 36.8105 28.5583 36.8105 18.6172C36.8105 8.67606 28.7517 0.617188 18.8105 0.617188C8.86942 0.617188 0.810547 8.67606 0.810547 18.6172C0.810547 28.5583 8.86942 36.6172 18.8105 36.6172Z" fill="url(#paint0_linear_188_436)" fill-opacity="0.04"/>
<path d="M18.8105 0.866211C28.6144 0.866211 36.5615 8.81336 36.5615 18.6172C36.5615 28.421 28.6144 36.3682 18.8105 36.3682C9.00672 36.3682 1.05957 28.421 1.05957 18.6172C1.05957 8.81336 9.00672 0.866211 18.8105 0.866211Z" stroke="url(#paint1_linear_188_436)" stroke-opacity="0.1" stroke-width="0.4972"/>
<path d="M23.6 11.6172H26.054L20.694 17.7592L27 26.1172H22.063L18.196 21.0472L13.771 26.1172H11.316L17.049 19.5472L11 11.6172H16.063L19.558 16.2502L23.6 11.6172ZM22.74 24.6452H24.1L15.323 13.0122H13.865L22.74 24.6452Z" fill="url(#paint2_linear_188_436)"/>
<defs>
<linearGradient id="paint0_linear_188_436" x1="8.76574" y1="4.34619" x2="18.7097" y2="18.5164" gradientUnits="userSpaceOnUse">
<stop stop-color="#F0EBE4"/>
<stop offset="1" stop-color="#362817"/>
</linearGradient>
<linearGradient id="paint1_linear_188_436" x1="33.3771" y1="3.84899" x2="5.53395" y2="31.6922" gradientUnits="userSpaceOnUse">
<stop stop-color="#9C7443"/>
<stop offset="0.401909" stop-color="#F2ECE6"/>
<stop offset="0.700949" stop-color="#3A2E20"/>
<stop offset="1" stop-color="#837F7A"/>
</linearGradient>
<linearGradient id="paint2_linear_188_436" x1="11.6996" y1="11.9951" x2="22.2275" y2="28.6865" gradientUnits="userSpaceOnUse">
<stop stop-color="#7C7C7C"/>
<stop offset="0.235577" stop-color="#696969"/>
<stop offset="0.67" stop-color="#F9F8F6"/>
<stop offset="0.85" stop-color="#D4D4D4"/>
<stop offset="1" stop-color="#7F7F7F"/>
</linearGradient>
</defs>
</svg>
