<svg width="100" height="100" viewBox="0 0 100 100" fill="none" xmlns="http://www.w3.org/2000/svg">
<path d="M50 100C77.6142 100 100 77.6142 100 50C100 22.3858 77.6142 0 50 0C22.3858 0 0 22.3858 0 50C0 77.6142 22.3858 100 50 100Z" fill="url(#paint0_linear_2359_1356)" fill-opacity="0.04"/>
<path d="M50 0.249023C77.4769 0.249023 99.751 22.5231 99.751 50C99.751 77.4769 77.4769 99.751 50 99.751C22.5231 99.751 0.249023 77.4769 0.249023 50C0.249023 22.5231 22.5231 0.249023 50 0.249023Z" stroke="url(#paint1_linear_2359_1356)" stroke-opacity="0.1" stroke-width="0.4972"/>
<path d="M70.0772 36.9639C68.7289 37.6381 67.3806 37.9752 65.8638 38.1437C66.538 37.9752 67.5492 36.7954 67.8862 36.2898C68.5604 35.6157 69.066 34.773 69.2345 33.7618V33.5932C69.066 33.5932 69.066 33.5932 69.066 33.5932C67.5492 34.4359 65.8638 35.1101 64.1785 35.4471C64.0099 35.4471 64.0099 35.4471 63.8414 35.2786C63.6728 35.1101 63.5043 34.9415 63.3358 34.773C62.6616 34.0988 61.819 33.5932 60.9763 33.2562C59.7965 32.7506 58.6168 32.582 57.2685 32.582C56.0888 32.582 54.909 32.9191 53.7293 33.5932C52.718 34.0988 51.7068 34.9415 50.8642 35.9527C50.0215 36.9639 49.5159 38.1437 49.1788 39.3234C48.8417 40.5032 48.8417 41.6829 49.0103 42.8627C49.0103 43.0312 49.0103 43.0312 48.8417 43.0312C42.1003 42.02 36.3701 39.6605 31.8197 34.4359C31.6511 34.2674 31.4826 34.2674 31.3141 34.4359C29.2917 37.4696 30.3029 42.1885 32.8309 44.548C33.168 44.8851 33.505 45.2222 33.8421 45.3907C33.6736 45.3907 31.9882 45.2222 30.6399 44.548C30.4714 44.3795 30.3029 44.548 30.3029 44.7166C30.3029 45.0536 30.3029 45.3907 30.3029 45.7278C30.6399 48.7614 32.8309 51.6265 35.696 52.6377C36.0331 52.8063 36.3701 52.9748 36.7072 52.9748C36.0331 53.1433 35.3589 53.1433 33.505 53.1433C33.3365 53.1433 33.168 53.1433 33.3365 53.4804C34.6848 57.3567 37.7184 58.5365 40.0779 59.0421C40.415 59.0421 40.7521 59.0421 40.9206 59.2106C40.2464 60.3903 37.5499 61.233 36.3701 61.5701C34.1792 62.4128 31.6511 62.7498 29.4602 62.4128C29.1231 62.4128 28.9546 62.4128 28.9546 62.4128C28.786 62.4128 28.9546 62.5813 29.1231 62.5813C29.6287 62.9184 30.1343 63.2554 30.6399 63.424C32.1567 64.2667 33.6736 64.7723 35.3589 65.2779C43.7857 67.6374 53.2237 65.952 59.4595 59.5477C64.347 54.6601 66.2009 47.9187 66.2009 41.0088C66.2009 40.6717 66.538 40.6717 66.7065 40.5032C68.0548 39.492 69.066 38.3122 70.0772 37.1325C70.2457 36.7954 70.2457 36.6269 70.2457 36.4583C70.2457 36.7954 70.2457 36.7954 70.0772 36.9639Z" fill="url(#paint2_linear_2359_1356)"/>
<defs>
<linearGradient id="paint0_linear_2359_1356" x1="22.0978" y1="10.3583" x2="49.72" y2="49.72" gradientUnits="userSpaceOnUse">
<stop stop-color="#F0EBE4"/>
<stop offset="1" stop-color="#362817"/>
</linearGradient>
<linearGradient id="paint1_linear_2359_1356" x1="90.4628" y1="8.97722" x2="13.1206" y2="86.3194" gradientUnits="userSpaceOnUse">
<stop stop-color="#9C7443"/>
<stop offset="0.401909" stop-color="#F2ECE6"/>
<stop offset="0.700949" stop-color="#3A2E20"/>
<stop offset="1" stop-color="#837F7A"/>
</linearGradient>
<linearGradient id="paint2_linear_2359_1356" x1="30.6933" y1="33.4606" x2="53.9737" y2="74.4997" gradientUnits="userSpaceOnUse">
<stop stop-color="#7C7C7C"/>
<stop offset="0.235577" stop-color="#696969"/>
<stop offset="0.67" stop-color="#F9F8F6"/>
<stop offset="0.85" stop-color="#D4D4D4"/>
<stop offset="1" stop-color="#7F7F7F"/>
</linearGradient>
</defs>
</svg>
